PathFileType	4	(X/Y/Z)	Test12_result.trc
DataRate	CameraRate	NumFrames	NumMarkers	Units	OrigDataRate	OrigDataStartFrame	OrigNumFrames
100	100	4	56	mm	100	309	493
Frame#	Time	PELO			PELA			PELL			PELP			LFEO			LFEA			LFEL			LFEP			LTIO			LTIA			LTIL			LTIP			LFOO			LFOA			LFOL			LFOP			LTOO			LTOA			LTOL			LTOP			RFEO			RFEA			RFEL			RFEP			RTIO			RTIA			RTIL			RTIP			RFOO			RFOA			RFOL			RFOP			RTOO			RTOA			RTOL			RTOP			LASI			RASI			LPSI			RPSI			LTHI			LKNE			LTIB			LANK			LHEE			LTOE			LFMH			LVMH			RTHI			RKNE			RTIB			RANK			RHEE			RTOE			RFMH			RVMH		
		X1	Y1	Z1	X2	Y2	Z2	X3	Y3	Z3	X4	Y4	Z4	X5	Y5	Z5	X6	Y6	Z6	X7	Y7	Z7	X8	Y8	Z8	X9	Y9	Z9	X10	Y10	Z10	X11	Y11	Z11	X12	Y12	Z12	X13	Y13	Z13	X14	Y14	Z14	X15	Y15	Z15	X16	Y16	Z16	X17	Y17	Z17	X18	Y18	Z18	X19	Y19	Z19	X20	Y20	Z20	X21	Y21	Z21	X22	Y22	Z22	X23	Y23	Z23	X24	Y24	Z24	X25	Y25	Z25	X26	Y26	Z26	X27	Y27	Z27	X28	Y28	Z28	X29	Y29	Z29	X30	Y30	Z30	X31	Y31	Z31	X32	Y32	Z32	X33	Y33	Z33	X34	Y34	Z34	X35	Y35	Z35	X36	Y36	Z36	X37	Y37	Z37	X38	Y38	Z38	X39	Y39	Z39	X40	Y40	Z40	X41	Y41	Z41	X42	Y42	Z42	X43	Y43	Z43	X44	Y44	Z44	X45	Y45	Z45	X46	Y46	Z46	X47	Y47	Z47	X48	Y48	Z48	X49	Y49	Z49	X50	Y50	Z50	X51	Y51	Z51	X52	Y52	Z52	X53	Y53	Z53	X54	Y54	Z54	X55	Y55	Z55	X56	Y56	Z56
	
371	3.700000	634.394222	883.098367	-154.275154	795.008711	861.749228	-148.576919	640.458304	885.482057	-316.271425	655.642401	1043.796274	-151.115195	782.850478	495.799131	-250.474914	1161.052843	643.465495	-339.035465	694.776562	478.045387	-656.200194	634.893209	883.823536	-235.334014	904.587905	108.561871	-238.521056	1254.930424	214.947656	-359.806578	792.083173	61.897426	-604.479773	788.965880	476.346691	-249.874449	1017.521861	138.551667	-261.048759	958.058307	293.255105	-273.409658	1005.315050	120.699022	-425.822978	862.805008	80.498474	-243.293422	1069.094135	157.902744	-266.967158	1049.272919	209.470552	-271.087439	1065.025206	151.951886	-321.891889	1017.521854	138.551660	-261.048739	527.950992	471.871637	-103.725311	923.329832	361.625316	6.673062	642.484380	472.734356	-513.051247	633.895093	882.372959	-73.216280	370.486399	103.016704	-143.302496	705.933819	-51.062744	-41.927591	478.401268	96.348624	-510.524737	520.058417	453.383519	-105.709014	479.052176	66.820209	-122.347771	512.449253	224.831158	-104.447167	498.902570	80.825467	-283.010577	321.274304	102.028812	-138.772543	531.644853	55.084024	-116.872863	542.777216	107.754345	-110.906016	538.261631	59.752426	-170.427133	479.052232	66.820214	-122.347767	691.823264	967.235364	-281.646354	682.049568	963.393461	-20.550707	496.164103	988.333035	-214.910678	492.565073	993.727790	-113.053575	710.367608	647.440685	-334.363981	770.557483	493.321083	-307.103364	819.154694	257.536125	-299.318060	887.700764	95.017176	-275.673433	869.984252	54.807376	-224.122747	1027.935321	119.844973	-247.209713	1069.908499	133.303821	-233.270708	1030.875434	110.932620	-290.987293	556.088522	684.892264	4.387251	512.457030	471.754909	-48.352220	428.703874	307.777484	-49.008960	353.747923	95.150173	-104.483108	304.478907	80.045651	-155.762191	471.439885	45.242424	-138.740511	517.803761	38.958678	-170.067231	481.692458	32.510155	-94.594917
372	3.710000	648.453462	880.444666	-154.298233	809.006069	858.923758	-147.592164	655.491949	882.485684	-316.259793	669.868008	1041.124367	-151.342754	799.468694	493.771729	-249.358396	1175.691097	642.939872	-343.505391	706.703231	472.456443	-653.831134	649.439482	881.001340	-235.353987	935.892233	111.619846	-236.213545	1280.549776	230.333637	-361.918255	821.414120	58.238931	-600.514929	806.323977	474.568850	-248.697885	1047.937670	144.812717	-258.686880	983.880693	297.550842	-272.462326	1036.746334	125.266286	-423.343222	894.986284	82.273396	-240.867629	1098.921454	165.659164	-264.626562	1077.569103	216.571857	-269.218372	1095.191028	159.143697	-319.512009	1047.937688	144.812711	-258.686845	536.092573	470.788083	-103.405741	929.072940	355.416717	10.316669	653.731876	468.877524	-511.859177	647.467293	879.887773	-73.242479	371.925083	104.420994	-142.612744	704.735235	-55.644822	-40.428672	480.291644	95.182336	-510.031280	527.871511	452.441496	-105.369096	480.048600	66.633573	-122.183707	515.816223	224.127254	-104.298488	499.370296	80.498812	-282.923058	322.724741	104.142973	-137.859673	532.489956	54.130450	-116.958387	544.412492	106.628341	-110.996661	538.930507	58.752183	-170.538158	480.048670	66.633567	-122.183692	706.744764	964.252385	-281.543121	695.396485	960.961584	-20.409257	510.751090	985.624029	-216.069797	506.591304	991.395998	-114.268944	725.007012	644.237021	-334.337064	786.519685	490.796308	-305.817207	843.998378	256.836733	-297.375017	919.139131	97.190695	-273.093562	903.113209	56.778971	-221.350867	1060.003317	126.677762	-244.748369	1100.962578	141.136870	-231.408361	1062.378566	117.440017	-288.826578	566.286983	683.695553	4.509602	520.178862	471.046521	-48.152280	433.721766	308.322386	-48.590890	354.996708	96.922562	-103.802801	305.326509	82.676180	-154.986801	471.679183	45.402481	-138.575427	517.693667	38.823193	-170.075067	481.811191	32.373765	-94.516636
373	3.720000	662.672504	877.772682	-154.354038	823.161248	856.092937	-146.698033	670.627723	879.481297	-316.277032	684.244286	1038.434863	-151.598920	816.371452	491.945522	-248.229123	1190.877083	642.818140	-345.713769	721.064537	467.772941	-651.778957	664.116845	878.165846	-235.403887	963.968038	114.226009	-233.626946	1304.204166	242.233494	-361.653260	849.396023	55.443225	-596.860428	823.791843	472.955969	-247.495013	1075.243792	149.725395	-256.379069	1007.808776	300.891682	-271.292412	1064.474262	128.681821	-420.880731	923.724746	83.944588	-238.048696	1125.750046	171.652340	-262.489149	1103.271675	222.041081	-267.460274	1122.160232	164.637803	-317.323045	1075.243742	149.725387	-256.379053	544.615904	469.685132	-103.062827	935.201380	349.429020	13.899673	665.211753	464.942916	-510.656953	661.228043	877.379427	-73.304188	373.485926	106.038647	-141.768759	703.602822	-60.219754	-39.298722	481.713993	94.255846	-509.554822	536.054296	451.492082	-104.999263	481.078742	66.447303	-121.965953	519.533411	223.305788	-104.078925	499.768004	80.204449	-282.789309	324.313969	106.565336	-136.752415	533.333719	53.074619	-117.037130	546.151941	105.360769	-111.074792	539.563460	57.660325	-170.644893	481.078792	66.447285	-121.965939	721.775456	961.263083	-281.498361	708.942878	958.506881	-20.299809	525.492014	982.881735	-217.228301	520.797091	989.034886	-115.487838	740.319467	641.366002	-334.277477	803.062339	488.569897	-304.581869	867.394561	256.297034	-295.368074	947.466968	99.098823	-270.341421	932.760581	58.616589	-218.385922	1088.964652	132.139509	-242.398551	1129.014626	147.159291	-229.466315	1090.710718	122.521441	-286.603141	576.798642	682.484163	4.614290	528.303218	470.326576	-47.928959	439.125222	308.934140	-48.084134	356.426778	98.911367	-102.946129	306.327331	85.617589	-153.987449	471.977583	45.559785	-138.349094	517.575752	38.696215	-170.089374	481.986144	32.236031	-94.404573
374	3.730000	677.077346	875.117163	-154.446367	837.501171	853.289678	-145.900566	685.890969	876.514922	-316.327912	698.798098	1035.762309	-151.876705	833.591007	490.352217	-247.070569	1206.713331	643.183004	-345.593037	737.938707	464.057233	-650.113228	678.950959	875.357350	-235.488026	988.696419	116.024871	-230.841505	1326.168635	250.319640	-358.890824	875.851155	53.568545	-593.701596	841.394380	471.519882	-246.254090	1099.393523	152.908493	-254.210642	1029.819493	303.029429	-269.885385	1088.361776	130.628372	-418.530823	948.861526	85.160722	-234.924883	1149.570677	175.491097	-260.639228	1126.379297	225.531389	-265.864152	1145.893452	168.064368	-315.412626	1099.393396	152.908490	-254.210655	553.538145	468.572182	-102.684933	941.748699	343.666523	17.459673	676.962741	460.926443	-509.442386	675.203674	874.877062	-73.404696	375.195527	107.905595	-140.778536	702.510828	-64.754928	-38.448500	482.790617	93.604517	-509.067283	544.624314	450.545640	-104.588905	482.133685	66.241608	-121.701330	523.666175	222.305619	-103.759206	500.111326	79.956858	-282.609324	326.074013	109.355269	-135.463189	534.153597	51.870377	-117.114050	547.997760	103.891699	-111.133336	540.146138	56.442124	-170.750022	482.133702	66.241591	-121.701332	736.941619	958.310589	-281.509294	722.715860	956.054511	-20.222114	540.410246	980.148217	-218.385854	535.203233	986.676854	-116.709333	756.361480	638.890900	-334.145520	820.224597	486.677711	-303.390914	889.294319	255.778013	-293.343981	972.548790	100.423527	-267.515234	958.693308	59.923086	-215.375087	1114.322721	135.740864	-240.230784	1153.923947	151.009946	-227.396194	1115.731626	125.845498	-284.309547	587.640922	681.273530	4.699362	536.844905	469.606235	-47.671076	444.919710	309.638711	-47.499505	358.054211	101.153066	-101.925125	307.507761	88.909967	-152.780586	472.316879	45.705276	-138.073578	517.459463	38.586527	-170.106900	482.214770	32.108043	-94.264237
